<svg version="1.2" xmlns="http://www.w3.org/2000/svg" viewBox="0 0 430 235" width="430" height="235">
	<title>Ejaz logo blue-svg</title>
	<defs>
		<clipPath clipPathUnits="userSpaceOnUse" id="cp1">
			<path d="m0 34h429.24v278.33h-429.24z"/>
		</clipPath>
	</defs>
	<style>
		.s0 { fill: #0099d8 } 
	</style>
	<g id="g8">
		<g id="g10">
			<g id="Clip-Path: g12" clip-path="url(#cp1)">
				<g id="g12">
					<g id="g18">
						<path id="path20" class="s0" d="m99.8 171.8h91l-89.6-14.4c0.2-1.7 0.4-2.5 0.7-4.2l83.3 14.7-79.5-28.9q1-2.8 2-5.5l75.2 27.3-69.3-40q1.6-2.9 3.4-5.7l65.2 37.6-57.7-48.4q2.3-2.9 4.8-5.7l54.2 45.4-45.5-54.2q3.1-2.7 6.3-5.3l42.5 50.7-33-57.3q3.8-2.4 7.8-4.6l30.8 53.4-21.1-57.9q4.6-1.9 9.3-3.4l19.5 53.6-9.9-56.2q5.2-1.1 10.5-1.8l9.1 51.6v-52.5q2.8-0.1 5.7-0.1 2.9 0 5.8 0.1v47.9l8.3-47.1q6.1 0.7 12 2.1l-7.5 42.6 14.8-40.7q6.3 1.9 12.3 4.5l-13.2 36.3 19.3-33.4q6.2 3.1 12 6.9l-17 29.5 21.9-26.1q5.9 4.4 11.2 9.4l-18.9 22.6 22.5-18.9q5.4 5.5 10 11.8l-19 15.9 21.5-12.4q4.5 6.7 8.1 14.1l-17.5 10.1 19-6.9q3.5 7.7 5.9 16l-14.7 5.4 15.4-2.7c2.4 9.2 3.7 18.9 3.7 28.8h-99.2v-1.4l-0.5-2.9-1-2.8-1.5-2.5-1.8-2.2-2.3-1.9-2.5-1.5-2.7-0.9-2.9-0.6h-2.9l-2.9 0.6-2.7 0.9-2.6 1.5-2.2 1.9-1.9 2.2-1.4 2.5-1 2.8-0.5 2.9v1.4h-99.2c0-1.3 0-2.7 0.1-4z"/>
					</g>
					<g id="g22">
					</g>
					<g id="g28">
					</g>
					<g id="g32">
					</g>
					<g id="g36">
					</g>
					<g id="g40">
					</g>
					<g id="g44">
					</g>
					<g id="g48">
					</g>
					<g id="g52">
					</g>
					<g id="g56">
					</g>
					<g id="g60">
					</g>
					<g id="g64">
					</g>
					<g id="g68">
					</g>
				</g>
			</g>
		</g>
	</g>
</svg>