<svg version="1.2" xmlns="http://www.w3.org/2000/svg" viewBox="0 0 430 279" width="430" height="279">
	<title>Ejaz logo blue-svg</title>
	<defs>
		<clipPath clipPathUnits="userSpaceOnUse" id="cp1">
			<path d="m0 0h429.24v278.33h-429.24z"/>
		</clipPath>
	</defs>
	<style>
		.s0 { fill: #0099d8 } 
		.s1 { fill: #f9f9f9 } 
	</style>
	<g id="g8">
		<g id="g10">
			<g id="Clip-Path: g12" clip-path="url(#cp1)">
				<g id="g12">
					<g id="g18">
						<path id="path20" class="s0" d="m99.8 137.8h91l-89.6-14.4c0.2-1.7 0.4-2.5 0.7-4.2l83.3 14.7-79.5-28.9q1-2.8 2-5.5l75.2 27.3-69.3-40q1.6-2.9 3.4-5.7l65.2 37.6-57.7-48.4q2.3-2.9 4.8-5.7l54.2 45.4-45.5-54.2q3.1-2.7 6.3-5.3l42.5 50.7-33-57.3q3.8-2.4 7.8-4.6l30.8 53.4-21.1-57.9q4.6-1.9 9.3-3.4l19.5 53.6-9.9-56.2q5.2-1.1 10.5-1.8l9.1 51.6v-52.5q2.8-0.1 5.7-0.1 2.9 0 5.8 0.1v47.9l8.3-47.1q6.1 0.7 12 2.1l-7.5 42.6 14.8-40.7q6.3 1.9 12.3 4.5l-13.2 36.3 19.3-33.4q6.2 3.1 12 6.9l-17 29.5 21.9-26.1q5.9 4.4 11.2 9.4l-18.9 22.6 22.5-18.9q5.4 5.5 10 11.8l-19 15.9 21.5-12.4q4.5 6.7 8.1 14.1l-17.5 10.1 19-6.9q3.5 7.7 5.9 16l-14.7 5.4 15.4-2.7c2.4 9.2 3.7 18.9 3.7 28.8h-99.2v-1.4l-0.5-2.9-1-2.8-1.5-2.5-1.8-2.2-2.3-1.9-2.5-1.5-2.7-0.9-2.9-0.6h-2.9l-2.9 0.6-2.7 0.9-2.6 1.5-2.2 1.9-1.9 2.2-1.4 2.5-1 2.8-0.5 2.9v1.4h-99.2c0-1.3 0-2.7 0.1-4z"/>
					</g>
					<g id="g22">
						<path id="path24" class="s1" d="m358.2 179.8v39.7h-9.2-1.6-5.8c-7.1-11.6-5.7-41.6-29.9-41.8-8.8-0.6-16.7 3.2-20.6 5l5.3 12.4c25.1-12 26.9 10.1 31.2 24.4h-40.6-1.7-9.5v-59.7h-14.5v70.7h24 1.7 60.4 1.6 23.8v-50.7z"/>
					</g>
					<path id="path26" class="s1" d="m401.9 230.5h-14.6v-70.7h14.6z"/>
					<g id="g28">
						<path id="path30" class="s1" d="m373.6 245c0 4.3-3.6 7.8-7.8 7.8-4.3 0-7.9-3.5-7.9-7.8 0-4.3 3.6-7.8 7.9-7.8 4.2 0 7.8 3.5 7.8 7.8z"/>
					</g>
					<g id="g32">
						<path id="path34" class="s1" d="m355.6 245c0 4.3-3.6 7.8-7.9 7.8-4.2 0-7.8-3.5-7.8-7.8 0-4.3 3.6-7.8 7.8-7.8 4.3 0 7.9 3.5 7.9 7.8z"/>
					</g>
					<g id="g36">
						<path id="path38" class="s1" d="m393.8 246c-0.5-0.6-0.8-1.2-0.8-1.8q0.1-1 0.8-1.4c1.1-0.6 3.1-0.3 5.5 0.8l0.8 0.3 2.5-4.7-0.8-0.4c-4.5-2-9.1-2.1-12-0.3-1.9 1.2-2.9 3.2-2.7 5.6q0.1 1.7 0.9 3.1h-2.1v4.7h16.6v-4.7h-5.8c-1.1 0-2.2-0.5-2.9-1.2z"/>
					</g>
					<g id="g40">
						<path id="path42" class="s1" d="m306.3 245c0 4.3-3.6 7.8-7.9 7.8-4.2 0-7.8-3.5-7.8-7.8 0-4.3 3.6-7.8 7.8-7.8 4.3 0 7.9 3.5 7.9 7.8z"/>
					</g>
					<g id="g44">
						<path id="path46" fill-rule="evenodd" class="s1" d="m26.7 205.5v-1.4c0-10.5 4.2-19.2 11.7-23.7 3.7-2.3 8-3.4 12.8-3.4 14.3 0 23.1 9.4 23.1 26.1v5.7h-33.4c0.9 6.8 5.8 11.3 12.7 11.3q8.1 0 12.7-5.8l6.9 7.7c-4.2 5.9-11.8 9.4-20.5 9.4-15.4 0-26-10.2-26-25.9zm14.3-6.3h19.5v-1.1c-0.1-6.2-3.4-9.7-9.4-9.7-5.6 0-9.1 3.8-10.1 10.8z"/>
					</g>
					<g id="g48">
						<path id="path50" class="s1" d="m100.5 179.8v53.5c0 11.6-6.3 18.4-17.9 18.4-2.5 0-4.8-0.3-7-0.9v-11.1q2.6 0.5 4.4 0.5c4.3 0 6.4-2.3 6.4-6.8v-53.6z"/>
					</g>
					<g id="g52">
						<path id="path54" fill-rule="evenodd" class="s1" d="m141.8 230.5c-0.6-1.3-1.1-2.8-1.4-4.7q-5.1 5.6-13.2 5.6c-10.3 0-17.9-6.6-17.9-15.7 0-11.1 8.5-17.2 24.1-17.3h6.4v-3c0-4.9-2.3-8-7.7-8-4.7 0-7.6 2.4-7.6 6.3h-14c0-6 3.9-11.5 10.8-14.5q5.1-2.2 11.5-2.2c13 0 21.1 6.8 21.1 18.6v22.7c0.1 5 0.7 8.8 2.1 11.3v0.9zm-2-14.9v-9h-5.2q-10.6 0-11.2 7.3l-0.1 0.8c0 3.5 2.6 6 6.9 6 4.1 0 7.9-2 9.6-5.1z"/>
					</g>
					<g id="g56">
						<path id="path58" class="s1" d="m180.8 219.2h25.6v11.3h-43.5v-8.6l24.7-32.6h-24v-11.3h42.1v8.3z"/>
					</g>
					<g id="g60">
						<path id="path62" class="s1" d="m101.3 161.9c0 4.3-3.6 7.8-7.9 7.8-4.2 0-7.8-3.5-7.8-7.8 0-4.3 3.6-7.8 7.8-7.8 4.3 0 7.9 3.5 7.9 7.8z"/>
					</g>
					<g id="g64">
						<path id="path66" class="s1" d="m248.6 179.8v53.5c0 11.6-6.3 18.4-17.9 18.4-2.4 0-4.7-0.3-6.9-0.9v-11.1q2.5 0.5 4.4 0.5c4.2 0 6.4-2.3 6.4-6.8v-53.6z"/>
					</g>
					<g id="g68">
						<path id="path70" class="s1" d="m249.4 161.9c0 4.3-3.5 7.8-7.8 7.8-4.3 0-7.9-3.5-7.9-7.8 0-4.3 3.6-7.8 7.9-7.8 4.3 0 7.8 3.5 7.8 7.8z"/>
					</g>
				</g>
			</g>
		</g>
	</g>
</svg>