<?xml version="1.0" encoding="UTF-8" standalone="no"?>
<!-- Created with Inkscape (http://www.inkscape.org/) -->

<svg
   version="1.1"
   id="svg2"
   width="429.24133"
   height="278.33066"
   viewBox="0 0 429.24133 278.33066"
   sodipodi:docname="Ejaz logo blue.ai"
   xmlns:inkscape="http://www.inkscape.org/namespaces/inkscape"
   xmlns:sodipodi="http://sodipodi.sourceforge.net/DTD/sodipodi-0.dtd"
   xmlns="http://www.w3.org/2000/svg"
   xmlns:svg="http://www.w3.org/2000/svg">
  <defs
     id="defs6">
    <clipPath
       clipPathUnits="userSpaceOnUse"
       id="clipPath16">
      <path
         d="M 0,208.748 H 321.931 V 0 H 0 Z"
         id="path14" />
    </clipPath>
  </defs>
  <sodipodi:namedview
     id="namedview4"
     pagecolor="#ffffff"
     bordercolor="#000000"
     borderopacity="0.25"
     inkscape:showpageshadow="2"
     inkscape:pageopacity="0.0"
     inkscape:pagecheckerboard="0"
     inkscape:deskcolor="#d1d1d1" />
  <g
     id="g8"
     inkscape:groupmode="layer"
     inkscape:label="Ejaz logo blue"
     transform="matrix(1.3333333,0,0,-1.3333333,0,278.33067)">
    <g
       id="g10">
      <g
         id="g12"
         clip-path="url(#clipPath16)">
        <g
           id="g18"
           transform="translate(74.8437,105.3876)">
          <path
             d="M 0,0 H 68.29 L 1.038,10.832 c 0.192,1.257 0.312,1.88 0.558,3.119 L 64.036,2.942 4.454,24.628 c 0.469,1.394 0.972,2.771 1.509,4.132 L 62.302,8.254 10.358,38.243 c 0.795,1.469 1.64,2.907 2.516,4.323 L 61.797,14.321 18.529,50.627 c 1.156,1.468 2.347,2.906 3.593,4.295 L 62.759,20.823 28.646,61.477 c 1.534,1.384 3.128,2.701 4.758,3.975 L 65.287,27.456 40.473,70.436 c 1.912,1.21 3.871,2.351 5.88,3.413 L 69.449,33.844 53.639,77.28 c 2.271,0.942 4.587,1.793 6.949,2.542 L 75.217,39.632 67.79,81.751 c 2.586,0.58 5.214,1.041 7.88,1.383 l 6.826,-38.71 v 39.338 c 1.425,0.07 2.858,0.109 4.3,0.109 1.442,0 2.875,-0.039 4.3,-0.109 V 47.873 l 6.231,35.337 c 3.073,-0.373 6.095,-0.908 9.061,-1.594 l -5.631,-31.932 11.097,30.487 c 3.148,-0.949 6.221,-2.069 9.207,-3.356 l -9.915,-27.241 14.49,25.097 c 3.11,-1.562 6.116,-3.298 9,-5.209 l -12.76,-22.101 16.408,19.554 c 2.956,-2.182 5.758,-4.556 8.412,-7.087 L 132.53,42.946 149.418,57.117 c 2.679,-2.79 5.178,-5.75 7.47,-8.876 l -14.251,-11.958 16.132,9.314 c 2.276,-3.359 4.316,-6.89 6.111,-10.56 l -13.158,-7.597 14.27,5.194 c 1.747,-3.867 3.217,-7.882 4.389,-12.024 l -11.034,-4.016 11.593,2.044 c 1.781,-6.92 2.729,-14.17 2.729,-21.638 V -3.001 H 99.296 v 1.096 l -0.38,2.153 -0.749,2.058 -1.088,1.885 -1.41,1.68 -1.676,1.406 -1.9,1.097 -2.042,0.743 -2.17,0.383 H 85.71 L 83.54,9.117 81.497,8.373 79.604,7.28 77.925,5.872 76.513,4.19 75.426,2.307 74.677,0.25 74.296,-1.91 V -3.001 H -0.076 V -3 c 0,1.006 0.042,2.002 0.076,3"
             style="fill:#0099d8;fill-opacity:1;fill-rule:nonzero;stroke:none"
             id="path20" />
        </g>
        <g
           id="g22"
           transform="translate(268.6802,73.8628)">
          <path
             d="m 0,0 v -29.744 h -6.912 -1.237 -4.365 c -5.312,8.694 -4.257,31.213 -22.373,31.322 -6.585,0.509 -12.515,-2.401 -15.462,-3.747 l 4.002,-9.24 c 18.808,8.949 20.154,-7.604 23.355,-18.335 h -30.449 -1.237 -7.13 v 44.746 h -10.914 v -52.968 h 18.044 1.237 45.292 1.237 17.826 l 0,37.966 z"
             style="fill:#11034c;fill-opacity:1;fill-rule:nonzero;stroke:none"
             id="path24" />
        </g>
        <path
           d="m 301.421,35.897 h -10.914 v 52.968 h 10.914 z"
           style="fill:#11034c;fill-opacity:1;fill-rule:nonzero;stroke:none"
           id="path26" />
        <g
           id="g28"
           transform="translate(280.1978,25.0106)">
          <path
             d="m 0,0 c 0,-3.25 -2.677,-5.879 -5.879,-5.879 -3.202,0 -5.879,2.629 -5.879,5.879 0,3.202 2.677,5.831 5.879,5.831 C -2.677,5.831 0,3.202 0,0"
             style="fill:#11034c;fill-opacity:1;fill-rule:nonzero;stroke:none"
             id="path30" />
        </g>
        <g
           id="g32"
           transform="translate(266.6831,25.0106)">
          <path
             d="m 0,0 c 0,-3.25 -2.677,-5.879 -5.879,-5.879 -3.202,0 -5.879,2.629 -5.879,5.879 0,3.202 2.677,5.831 5.879,5.831 C -2.677,5.831 0,3.202 0,0"
             style="fill:#11034c;fill-opacity:1;fill-rule:nonzero;stroke:none"
             id="path34" />
        </g>
        <g
           id="g36"
           transform="translate(295.3363,24.2794)">
          <path
             d="m 0,0 c -0.393,0.403 -0.593,0.857 -0.564,1.283 0.033,0.541 0.229,0.906 0.597,1.115 0.775,0.441 2.325,0.209 4.143,-0.621 L 4.727,1.526 6.594,5.071 6.015,5.335 C 2.629,6.875 -0.81,6.973 -2.961,5.589 -4.396,4.665 -5.133,3.171 -5.036,1.381 -4.989,0.515 -4.763,-0.249 -4.35,-0.928 H -5.884 V -4.477 H 6.535 v 3.549 H 2.198 C 1.4,-0.928 0.558,-0.573 0,0"
             style="fill:#11034c;fill-opacity:1;fill-rule:nonzero;stroke:none"
             id="path38" />
        </g>
        <g
           id="g40"
           transform="translate(229.6992,25.0106)">
          <path
             d="m 0,0 c 0,-3.25 -2.677,-5.879 -5.879,-5.879 -3.202,0 -5.879,2.629 -5.879,5.879 0,3.202 2.677,5.831 5.879,5.831 C -2.677,5.831 0,3.202 0,0"
             style="fill:#11034c;fill-opacity:1;fill-rule:nonzero;stroke:none"
             id="path42" />
        </g>
        <g
           id="g44"
           transform="translate(30.7682,59.3257)">
          <path
             d="M 0,0 H 14.624 V 0.837 C 14.515,5.493 12.041,8.149 7.567,8.149 3.383,8.149 0.728,5.239 0,0 m -10.768,-4.693 v 1.019 c 0,7.894 3.201,14.442 8.804,17.825 2.801,1.674 5.966,2.511 9.567,2.511 10.768,0 17.353,-7.058 17.353,-19.536 V -7.167 H -0.109 c 0.691,-5.129 4.329,-8.512 9.568,-8.512 4.038,0 7.203,1.455 9.494,4.402 l 5.166,-5.785 c -3.165,-4.474 -8.803,-7.094 -15.352,-7.094 -11.532,0 -19.535,7.676 -19.535,19.463"
             style="fill:#11034c;fill-opacity:1;fill-rule:nonzero;stroke:none"
             id="path46" />
        </g>
        <g
           id="g48"
           transform="translate(75.3425,73.8628)">
          <path
             d="m 0,0 v -40.112 c 0,-8.694 -4.729,-13.751 -13.424,-13.751 -1.819,0 -3.565,0.218 -5.202,0.619 v 8.33 c 1.273,-0.218 2.365,-0.327 3.31,-0.327 3.165,0 4.766,1.673 4.766,5.057 l 0,40.184 z"
             style="fill:#11034c;fill-opacity:1;fill-rule:nonzero;stroke:none"
             id="path50" />
        </g>
        <g
           id="g52"
           transform="translate(104.8823,47.0296)">
          <path
             d="m 0,0 v 6.766 h -3.929 c -5.275,0 -8.076,-1.818 -8.403,-5.456 l -0.037,-0.619 c 0,-2.619 1.965,-4.511 5.166,-4.511 3.092,0 5.93,1.492 7.203,3.82 m 1.492,-11.132 c -0.473,0.946 -0.837,2.11 -1.055,3.529 -2.547,-2.838 -5.857,-4.257 -9.932,-4.257 -7.712,0 -13.387,4.984 -13.387,11.787 0,8.331 6.366,12.951 18.044,12.988 H 0 v 2.255 c 0,3.638 -1.783,6.003 -5.821,6.003 -3.528,0 -5.675,-1.819 -5.675,-4.766 h -10.513 c 0,4.547 2.946,8.695 8.076,10.914 2.583,1.091 5.457,1.637 8.658,1.637 9.713,0 15.825,-5.093 15.825,-13.933 V -2.037 c 0.036,-3.747 0.546,-6.548 1.564,-8.477 v -0.618 z"
             style="fill:#11034c;fill-opacity:1;fill-rule:nonzero;stroke:none"
             id="path54" />
        </g>
        <g
           id="g56"
           transform="translate(135.5862,44.3739)">
          <path
             d="m 0,0 h 19.245 v -8.476 h -32.669 v 6.402 L 5.093,22.373 h -17.971 v 8.513 h 31.54 v -6.221 z"
             style="fill:#11034c;fill-opacity:1;fill-rule:nonzero;stroke:none"
             id="path58" />
        </g>
        <g
           id="g60"
           transform="translate(75.9464,87.3241)">
          <path
             d="m 0,0 c 0,-3.25 -2.677,-5.879 -5.879,-5.879 -3.202,0 -5.879,2.629 -5.879,5.879 0,3.202 2.677,5.831 5.879,5.831 C -2.677,5.831 0,3.202 0,0"
             style="fill:#11034c;fill-opacity:1;fill-rule:nonzero;stroke:none"
             id="path62" />
        </g>
        <g
           id="g64"
           transform="translate(186.4636,73.8628)">
          <path
             d="m 0,0 v -40.112 c 0,-8.694 -4.729,-13.751 -13.424,-13.751 -1.819,0 -3.565,0.218 -5.202,0.619 v 8.33 c 1.273,-0.218 2.365,-0.327 3.31,-0.327 3.165,0 4.766,1.673 4.766,5.057 l 0,40.184 z"
             style="fill:#11034c;fill-opacity:1;fill-rule:nonzero;stroke:none"
             id="path66" />
        </g>
        <g
           id="g68"
           transform="translate(187.0675,87.3241)">
          <path
             d="m 0,0 c 0,-3.25 -2.677,-5.879 -5.879,-5.879 -3.202,0 -5.879,2.629 -5.879,5.879 0,3.202 2.677,5.831 5.879,5.831 C -2.677,5.831 0,3.202 0,0"
             style="fill:#11034c;fill-opacity:1;fill-rule:nonzero;stroke:none"
             id="path70" />
        </g>
      </g>
    </g>
  </g>
</svg>
